<svg width="100" height="100" viewBox="0 0 100 100" fill="none" xmlns="http://www.w3.org/2000/svg">
<path d="M33.0348 49.4157C29.2404 44.6106 26.9831 38.8131 26.5174 38.3206C32.0747 34.9305 42.9437 30.6704 43.5523 24.5579C44.3266 16.6602 29.0346 0.150002 26.1031 0C18.0799 0.0750011 3.39653 11.9552 1.65646 15.5452C-1.57795 22.9678 0.0249715 29.8754 5.58518 39.8756C12.6654 54.7508 38.9636 82.9687 54.007 91.8263C63.9617 98.5114 71.2334 101.136 79.9165 99.5514C83.9538 98.8814 98.5344 88.4138 99.9944 81.3362C100.352 78.7111 83.4024 61.3084 74.6363 60.6184C67.8304 60.0684 61.3044 68.9835 56.6271 73.3411C56.1614 72.8211 52.1726 70.0985 47.8925 65.7885C42.3208 60.6659 37.1435 54.6483 33.0348 49.4157Z" fill="white"/>
</svg>
