<svg width="100" height="100" viewBox="0 0 100 100" fill="none" xmlns="http://www.w3.org/2000/svg">
<circle cx="50" cy="50" r="47.5" fill="white" stroke="#000080" stroke-width="5"/>
<path d="M41.5174 49.7079C39.6202 47.3053 38.4916 44.4066 38.2587 44.1603C41.0374 42.4653 46.4719 40.3352 46.7762 37.279C47.1633 33.3301 39.5173 25.075 38.0516 25C34.04 25.0375 26.6983 30.9776 25.8282 32.7726C24.211 36.4839 25.0125 39.9377 27.7926 44.9378C31.3327 52.3755 44.4818 66.4844 52.0035 70.9132C56.9809 74.2558 60.6167 75.5681 64.9583 74.7758C66.9769 74.4408 74.2672 69.207 74.9972 65.6682C75.176 64.3556 66.7012 55.6543 62.3182 55.3093C58.9152 55.0343 55.6522 59.4918 53.3136 61.6706C53.0807 61.4106 51.0863 60.0493 48.9463 57.8943C46.1604 55.333 43.5718 52.3242 41.5174 49.7079Z" fill="#000080"/>
</svg>
