<svg width="149" height="100" viewBox="0 0 149 100" fill="none" xmlns="http://www.w3.org/2000/svg">
<path d="M12.5171 100H136.455C143.088 100 148.486 94.615 148.486 87.996V12.004C148.486 5.416 143.136 0.061 136.546 0.01C136.525 0.009 136.506 0 136.486 0H136.455H12.5171H12.4861C12.4651 0 12.4461 0.009 12.4261 0.01C5.83608 0.061 0.486085 5.416 0.486085 12.004V87.996C0.484085 94.615 5.88308 100 12.5171 100ZM13.7731 92L54.7721 47.584L71.8061 62.969C72.5671 63.656 73.5251 64 74.4841 64C75.4441 64 76.4021 63.656 77.1641 62.969L94.1971 47.584L135.197 92H13.7731ZM137.737 8.257C139.323 8.796 140.485 10.247 140.485 12.003V85.938L100.133 42.223L137.737 8.257ZM126.091 8L74.4841 54.609L22.8801 8H126.091ZM8.48408 12.004C8.48408 10.248 9.64608 8.797 11.2321 8.258L48.8361 42.224L8.48408 85.938V12.004Z" fill="white"/>
</svg>
