<?xml version="1.0" standalone="no"?>
<!DOCTYPE svg PUBLIC "-//W3C//DTD SVG 20010904//EN"
 "http://www.w3.org/TR/2001/REC-SVG-20010904/DTD/svg10.dtd">
<svg version="1.0" xmlns="http://www.w3.org/2000/svg"
 width="920.000000pt" height="920.000000pt" viewBox="0 0 920.000000 920.000000"
 preserveAspectRatio="xMidYMid meet">

<g transform="translate(0.000000,920.000000) scale(0.100000,-0.100000)"
fill="#000000" stroke="none">
<path d="M5815 9186 c-42 -19 -57 -37 -372 -431 -154 -193 -300 -368 -324
-389 -66 -56 -171 -104 -279 -125 -52 -11 -133 -27 -180 -36 -362 -72 -746
-296 -996 -583 -86 -99 -198 -261 -251 -366 -20 -39 -71 -154 -113 -256 l-77
-185 -194 -6 c-275 -10 -424 -42 -612 -135 -142 -70 -225 -130 -347 -253 -113
-114 -124 -129 -514 -718 l-399 -602 -551 -366 c-374 -247 -558 -375 -573
-397 -12 -18 -25 -51 -28 -73 -5 -31 72 -396 364 -1710 205 -919 376 -1684
381 -1701 11 -32 59 -84 97 -103 15 -8 172 -11 521 -11 l500 0 17 -53 c66
-205 246 -387 452 -461 247 -87 528 -29 722 150 l68 63 46 -43 c144 -138 313
-208 507 -208 193 0 354 65 504 205 l49 46 69 -63 c208 -193 516 -243 774
-126 75 34 173 101 223 154 l34 35 55 -50 c151 -138 310 -202 502 -202 112 0
204 20 303 67 175 81 304 221 378 409 l28 72 503 5 c557 6 548 5 697 76 224
105 394 307 458 544 25 91 25 319 0 410 -26 94 -87 214 -153 299 -32 41 -52
77 -46 79 24 8 140 102 184 150 199 213 269 528 179 802 -34 106 -67 167 -140
263 l-49 66 41 27 c113 74 225 199 282 314 145 289 115 611 -80 868 -30 40
-55 75 -55 77 0 2 24 20 54 40 75 50 196 179 243 261 221 381 105 858 -268
1101 -69 45 -75 51 -63 69 6 10 189 303 405 649 284 456 395 642 402 675 13
60 -5 121 -46 161 -21 21 -177 100 -467 236 -239 112 -581 273 -760 357 -179
84 -696 328 -1150 541 -879 414 -882 415 -955 381z m864 -747 c399 -188 771
-363 826 -389 55 -26 357 -168 670 -315 314 -147 571 -269 573 -270 2 -2 -161
-263 -361 -582 -200 -318 -369 -588 -376 -601 l-12 -22 -1667 -2 c-1841 -3
-1691 2 -1754 -65 -19 -20 -124 -272 -353 -847 -181 -455 -341 -841 -359 -870
-101 -155 -269 -246 -453 -246 -157 0 -293 54 -398 158 -127 126 -186 306
-156 476 8 46 144 398 428 1109 228 573 430 1072 448 1108 87 172 244 363 400
484 211 165 417 253 708 301 174 29 285 67 393 134 126 77 187 141 450 470
136 171 252 310 257 310 6 0 337 -154 736 -341z m-3880 -2691 c-152 -381 -284
-725 -292 -763 -95 -419 105 -841 486 -1030 124 -62 216 -85 362 -92 148 -7
261 12 390 66 212 87 384 248 482 453 22 45 168 404 324 795 l284 713 1601 0
c1048 0 1620 -4 1655 -10 240 -46 405 -276 369 -514 -27 -182 -162 -336 -335
-380 -43 -12 -111 -16 -245 -17 -150 0 -194 -3 -230 -17 -96 -37 -140 -165
-86 -256 45 -78 68 -87 224 -96 185 -11 261 -40 356 -134 212 -213 161 -574
-104 -729 -79 -46 -146 -57 -343 -57 -109 0 -195 -5 -219 -12 -53 -16 -96 -62
-114 -125 -20 -69 -5 -123 51 -179 47 -47 74 -54 207 -54 146 0 251 -44 345
-142 93 -99 129 -202 121 -349 -5 -75 -11 -100 -41 -164 -63 -132 -187 -229
-326 -255 -29 -5 -145 -10 -257 -10 -215 0 -241 -4 -287 -48 -42 -39 -57 -75
-57 -132 0 -81 42 -145 115 -175 11 -4 92 -11 180 -15 153 -6 164 -8 228 -38
95 -44 179 -126 225 -222 36 -74 37 -77 37 -196 0 -119 0 -121 -38 -197 -69
-140 -192 -231 -345 -256 -44 -8 -211 -11 -482 -9 l-415 3 -6 165 c-5 140 -10
177 -31 243 -73 220 -253 400 -475 475 -70 24 -93 26 -223 26 -133 1 -151 -2
-225 -27 -96 -34 -203 -99 -276 -167 l-53 -50 -41 38 c-91 87 -186 145 -300
183 -61 21 -88 24 -215 23 -136 0 -150 -2 -227 -30 -104 -39 -179 -84 -259
-157 l-64 -59 -70 65 c-270 250 -690 250 -960 0 l-70 -65 -64 59 c-137 124
-275 182 -457 190 -146 7 -236 -11 -357 -72 -148 -75 -267 -194 -336 -338 -55
-114 -68 -174 -73 -349 l-5 -158 -387 0 -387 0 -123 558 c-307 1386 -465 2102
-506 2287 -24 110 -41 202 -37 206 4 3 236 158 516 344 l508 338 417 626 c278
418 437 648 481 694 172 184 405 283 666 286 l90 1 -277 -692z m-80 -4120 c68
-26 155 -109 191 -183 25 -50 25 -52 25 -340 l0 -290 -28 -56 c-34 -70 -109
-142 -185 -177 -77 -36 -198 -37 -287 -2 -72 28 -159 110 -195 185 -25 50 -25
53 -25 335 l0 285 33 67 c85 174 281 247 471 176z m1046 16 c116 -30 197 -96
249 -204 l31 -65 0 -265 c0 -236 -2 -270 -19 -315 -58 -151 -186 -240 -346
-240 -173 0 -313 108 -355 274 -14 51 -16 107 -13 304 l3 242 31 65 c51 106
133 174 244 204 72 19 103 19 175 0z m1171 -23 c84 -39 138 -91 176 -169 l33
-67 0 -280 0 -280 -33 -67 c-65 -132 -178 -201 -332 -202 -72 0 -94 4 -142 26
-76 35 -151 107 -185 177 l-28 56 0 290 c0 285 0 291 24 338 92 186 303 263
487 178z m1094 6 c76 -28 168 -121 201 -202 23 -58 24 -69 24 -325 l0 -265
-31 -65 c-139 -291 -541 -288 -676 6 -22 46 -23 64 -26 301 -3 212 -1 262 13
310 62 215 280 321 495 240z"/>
</g>
</svg>
