<svg width="714" height="559" viewBox="0 0 714 559" fill="none" xmlns="http://www.w3.org/2000/svg">
<path d="M121.8 2.80006C114.733 7.73339 115 2.80006 115 157.467C115 236.533 114.867 301.2 114.733 301.467C114.467 301.6 111.267 301.2 107.667 300.4C103.933 299.733 96.8667 298.4 91.6667 297.333C80.0667 295.2 58.0666 290.8 37.2666 286.533C28.7333 284.8 19.6666 283.333 17.2666 283.333C11.9333 283.333 6.19998 287.067 2.86665 292.533C0.466646 296.533 0.333313 300.4 0.333313 386.267C0.333313 473.6 0.333313 475.733 2.99998 480C6.99998 486.4 13.1333 488.933 23.9333 488.4L33 488L33.9333 477.333C35.6666 457.2 43.6666 439.867 58.3333 425.333C75.1333 408.4 93.9333 400.533 117.667 400.267C147.533 400.133 172.733 413.6 189.667 438.8C193.267 444.4 196.333 449.6 196.333 450.4C196.333 451.333 197.133 453.467 198.067 455.333C199.933 458.8 202.2 469.333 203.667 481.733L204.6 488.667H229.267C248.467 488.667 253.8 488.267 253.4 486.933C252.067 483.6 255.133 464.533 258.2 456.267C265.8 436.133 281.4 418.533 299.267 409.733C314.467 402.267 323 400.267 339 400.4C362.733 400.4 381.4 408.267 398.6 425.467C411.8 438.667 419.4 454.133 422.467 474.4L424.733 488.933L437.133 488.4C448.067 488 449.8 487.6 453.133 484.667C458.6 479.6 460.333 474 460.333 461.333V450H477H493.667V475.333V500.667H514.067C525.133 500.667 544.6 500 557 499.333C569.533 498.667 585.4 497.733 592.333 497.333C639 494.667 683 487.467 700.333 479.733C707.4 476.533 714.067 470.667 713.267 468.267C712.867 467.067 691.933 466.533 620.6 466.267L528.333 466V233.333V0.666722H511H493.667L493.4 205.6L493 410.667L476.733 411.067L460.333 411.467V396.933C460.333 376.267 456.733 369.333 444.6 366.667C439.533 365.6 438.6 363.733 436.467 352C435.667 347.6 433.933 338 432.467 330.667C431 323.333 429.133 313.467 428.333 308.667C427.533 303.867 426.333 297.333 425.667 294C424.867 290.667 422.867 279.867 421 270C419.267 260.133 415.533 240.533 413 226.667C408.6 203.2 403.933 178.667 397.667 145.333C396.333 138 394.2 126.533 393 120C391.8 113.333 389.4 100.8 387.667 92.0001C385.933 83.2001 383.533 70.5334 382.333 64.0001C381.133 57.3334 379.667 49.3334 379 46.0001C378.333 42.6667 376.467 32.8001 374.867 24.0001C372.2 10.0001 371.4 7.60006 367.933 4.26672L364.067 0.666722H244.467C136.067 0.666722 124.6 0.933389 121.8 2.80006ZM338.467 30.1334C346.2 33.8667 349.933 39.8667 352.2 52.0001C353.133 57.0667 354.733 65.4667 355.667 70.6667C356.733 75.7334 359 88.4001 361 98.6667C362.867 108.933 365 120 365.667 123.333C366.333 126.667 367.8 134.667 369 141.333C370.2 147.867 371.667 156 372.333 159.333C373 162.667 375.4 175.2 377.667 187.333C379.933 199.467 383.267 217.067 385 226.667C386.867 236.133 389 247.6 389.8 252C390.6 256.4 391.667 262.4 392.333 265.333C395.4 279.333 395.667 278 389.133 278C384.2 278 381.667 276.8 371.133 269.333L358.867 260.667L355 263.6C352.867 265.333 351.133 267.2 351.133 268C351.133 268.667 353.667 271.067 356.733 273.333L362.333 277.333L350.467 277.733C343.933 278 338.333 277.867 338.067 277.467C337.8 277.2 338.2 275.733 339.133 274.133C340.067 272.667 340.6 271.2 340.333 270.933C339 269.6 317.133 274 315 276C312.067 278.667 269.933 279.067 269.133 276.267C268.733 275.467 268.2 273.067 267.8 271.067C267.133 268.133 264.867 266.4 255.933 261.867C249.933 258.933 242.6 254.667 239.667 252.533C225.667 242.267 209 222.533 205.667 212.267C201.667 199.6 213.133 184.667 226.867 184.667C233.667 184.667 240.2 188.4 244.733 194.933C250.067 202.8 260.2 214 262.067 214C264.333 214 261.933 198.133 258.467 190.533C254.2 181.067 245.533 172 238.2 169.2C226.733 164.8 210.2 169.733 199.267 180.8C189.933 190.133 184.733 202.533 182.867 220C181.4 234.133 181.933 268.267 183.8 274.933L184.6 278H163.8H143L143.267 158.133L143.667 38.2667L147 34.6667C153.8 27.3334 151.4 27.4667 245.4 27.3334C331.667 27.3334 332.467 27.3334 338.467 30.1334Z" fill="black"/>
<path d="M236.733 60.5333C210.6 67.2 193.133 94.5333 199 119.467C203 136.8 214.867 150.8 230.6 156.667C241.8 160.8 259.4 160.133 269.667 155.067C279.133 150.4 288.733 140.8 293.4 131.333C296.6 124.667 297 122.533 297 109.333C297 96.5333 296.6 93.8666 293.667 88C289.133 78.8 278.067 67.8666 268.733 63.7333C260.333 60.1333 244.6 58.5333 236.733 60.5333Z" fill="black"/>
<path d="M217.4 190.933C211.933 194.4 207.8 203.067 208.867 208.933C210.2 216.4 218.867 228.4 231.267 240.133C257.533 264.933 291.8 274.533 330.333 268C346.6 265.2 349.933 264 354.467 259.2C357.8 255.733 358.333 254.133 358.333 247.333C358.333 240.133 357.933 238.933 354.067 235.2C348.733 229.733 342.067 228.533 331.667 231.2C326.867 232.267 317.267 233.067 307.667 233.067C293.933 233.067 290.333 232.667 282.2 229.733C266.867 224.267 254.6 214.933 244.733 201.067C241.4 196.4 237 191.733 234.867 190.667C229.933 188 221.933 188.133 217.4 190.933Z" fill="black"/>
<path d="M359.267 216.4C357.667 216.667 354.867 218.933 353.133 221.467L349.933 226.133L356.6 232.8C360.333 236.533 363.4 239.333 363.667 239.067C367.667 233.733 371 227.333 371 224.533C371 219.2 365.533 215.333 359.267 216.4Z" fill="black"/>
<path d="M558.333 105.867C553.133 108 548.467 114.133 547.667 119.733C547.267 122.8 547 154.4 547.267 190C547.667 262 547.267 258.533 557.133 263.333C562.2 265.867 565.533 266 627.667 266C689.8 266 693.133 265.867 698.333 263.333C708.733 258.267 708.333 261.467 708.333 185.333C708.333 118.4 708.333 117.6 705.4 113.067C700.333 104.667 700.733 104.667 627.4 104.8C590.867 104.8 559.8 105.333 558.333 105.867Z" fill="black"/>
<path d="M558.333 286C556.867 286.533 553.933 288.933 551.667 291.333L547.667 295.467V364.667C547.667 432.533 547.667 433.867 550.467 437.6C556.733 446.133 555.667 446 627.667 446C688.333 446 693.4 445.733 698.467 443.467C708.6 438.933 708.333 440.533 708.333 364.667C708.333 298.933 708.333 297.6 705.533 293.067C700.2 284.4 702.2 284.667 628.067 284.8C591.133 284.8 559.8 285.333 558.333 286Z" fill="black"/>
<path d="M104.333 412.8C79.5333 419.2 62.4666 432.133 53 452C38.4666 482.133 43.6666 513.6 66.8666 536.8C77 546.8 83.9333 551.067 98.0666 555.867C105.533 558.4 128.733 558.8 137 556.533C161.667 549.733 181.667 530.267 188.867 506.133C191.933 495.6 191.8 472.667 188.467 463.2C180.733 440.667 165.267 424 145.533 416.667C131.667 411.6 114.867 410 104.333 412.8ZM130.333 459.2C140.2 463.6 147 474.533 147 485.867C147 498.667 135.133 511.867 121.933 513.6C109.4 515.333 94.3333 505.2 91 492.8C84.7333 469.6 108.6 449.2 130.333 459.2Z" fill="black"/>
<path d="M326.333 412.133C299.267 418.8 282.733 431.333 271.933 453.333C267.933 461.333 264.333 476.8 264.333 485.6C264.467 502.8 273.133 523.733 285.267 535.6C303.267 553.467 317 558.8 342.067 557.6C354.333 557.067 358.6 556.4 365.533 553.333C386.867 544.4 402.333 527.2 409.133 504.933C411.667 496.267 411.533 473.733 408.867 464.533C399.933 434 373 413.067 341 411.867C334.467 411.733 327.8 411.733 326.333 412.133ZM350.333 459.467C373.133 471.067 372.067 501.067 348.6 511.467C340.733 514.933 334.2 514.667 325.933 510.533C307.667 501.467 304.467 476.8 319.933 463.067C327.267 456.4 341.267 454.8 350.333 459.467Z" fill="black"/>
</svg>
