<?xml version="1.0" standalone="no"?>
<!DOCTYPE svg PUBLIC "-//W3C//DTD SVG 20010904//EN"
 "http://www.w3.org/TR/2001/REC-SVG-20010904/DTD/svg10.dtd">
<svg version="1.0" xmlns="http://www.w3.org/2000/svg"
 width="900.000000pt" height="913.000000pt" viewBox="0 0 900.000000 913.000000"
 preserveAspectRatio="xMidYMid meet">

<g transform="translate(0.000000,913.000000) scale(0.100000,-0.100000)"
fill="#000000" stroke="none">
<path d="M1955 9121 c-103 -27 -145 -95 -137 -222 2 -21 34 -54 145 -150 424
-368 686 -706 687 -885 0 -147 -82 -433 -177 -615 -147 -280 -379 -522 -667
-695 -445 -268 -984 -55 -1455 576 -47 64 -93 128 -101 144 -14 27 -17 28 -77
24 -76 -5 -109 -26 -141 -89 -40 -80 -39 -125 8 -309 239 -948 706 -1569 1334
-1775 195 -64 304 -80 541 -79 150 0 238 5 307 17 152 26 360 83 466 127 l97
40 398 -398 397 -397 536 536 535 535 -412 412 -412 413 21 52 c392 948 62
1783 -943 2386 -224 135 -570 294 -727 335 -73 19 -184 27 -223 17z"/>
<path d="M5192 8447 l-602 -602 297 -296 298 -296 97 -12 c426 -53 759 -234
883 -481 57 -113 70 -170 69 -310 0 -137 -20 -235 -76 -383 l-30 -78 -731
-737 c-403 -405 -896 -902 -1097 -1104 l-365 -368 -208 32 -208 32 -1254
-1254 c-1234 -1234 -1254 -1255 -1266 -1305 -20 -92 -23 -300 -5 -403 19 -108
68 -245 117 -328 42 -71 192 -230 279 -296 89 -69 269 -154 385 -183 53 -14
157 -30 233 -36 l137 -11 54 58 c30 33 287 300 570 594 284 294 581 602 661
685 210 218 638 662 920 954 135 139 248 260 252 269 4 10 16 107 28 217 l21
200 277 275 c152 151 729 724 1282 1274 552 550 1020 1008 1039 1018 42 22
128 24 174 4 59 -24 221 -143 278 -203 205 -216 339 -527 408 -943 30 -182 41
-331 41 -546 l0 -191 241 -240 241 -240 25 55 c47 107 152 439 203 642 98 392
134 663 133 1015 0 218 -3 273 -26 425 -30 200 -43 252 -93 388 -210 564 -736
1182 -1529 1797 l-90 70 -130 7 c-199 10 -347 65 -464 174 -73 68 -120 142
-157 249 -23 67 -28 102 -31 215 l-5 135 -331 333 c-183 182 -334 332 -337
332 -3 0 -276 -271 -608 -603z"/>
<path d="M5831 3176 l-544 -544 314 -334 c331 -351 1614 -1714 1953 -2076 110
-116 202 -212 205 -212 4 0 277 271 609 603 l603 603 -128 125 c-70 68 -317
306 -548 529 -231 223 -485 468 -565 545 -80 77 -269 259 -420 405 -303 292
-496 477 -700 675 -74 71 -158 151 -185 177 l-50 48 -544 -544z m1962 -1408
c142 -99 460 -335 464 -344 2 -7 -38 -142 -89 -301 l-94 -288 -311 -3 -312 -2
-96 296 c-53 163 -94 299 -90 302 9 9 489 361 493 361 2 1 18 -9 35 -21z"/>
</g>
</svg>
