<?xml version="1.0" standalone="no"?>
<!DOCTYPE svg PUBLIC "-//W3C//DTD SVG 20010904//EN"
 "http://www.w3.org/TR/2001/REC-SVG-20010904/DTD/svg10.dtd">
<svg version="1.0" xmlns="http://www.w3.org/2000/svg"
 width="900.000000pt" height="902.000000pt" viewBox="0 0 900.000000 902.000000"
 preserveAspectRatio="xMidYMid meet">

<g transform="translate(0.000000,902.000000) scale(0.100000,-0.100000)"
fill="#000000" stroke="none">
<path d="M2975 8985 c-234 -33 -353 -59 -544 -116 -524 -158 -989 -434 -1390
-824 -354 -345 -606 -717 -799 -1181 -155 -371 -224 -711 -238 -1169 -20 -619
87 -1109 359 -1651 435 -868 1187 -1488 2134 -1760 301 -86 459 -110 798 -120
350 -11 647 16 908 81 493 124 888 305 1250 573 l112 82 172 -172 172 -172
-20 -31 c-98 -146 -125 -343 -70 -500 31 -89 65 -126 736 -815 589 -604 984
-995 1089 -1078 131 -104 160 -116 306 -120 150 -5 217 13 320 85 80 56 570
544 633 631 75 103 91 155 91 308 1 128 0 131 -32 195 -44 87 -141 201 -415
485 -361 375 -1334 1344 -1408 1402 -36 28 -90 64 -120 79 -52 27 -60 28 -199
28 -164 -1 -193 -8 -298 -77 l-63 -41 -170 169 c-93 93 -169 173 -169 178 0 5
24 41 54 80 109 144 280 422 270 438 -6 9 -135 4 -175 -8 -17 -5 -85 105 -194
309 -31 60 -61 105 -65 100 -4 -4 -34 -55 -66 -113 -75 -136 -205 -335 -280
-430 -478 -597 -1153 -979 -1894 -1072 -135 -17 -563 -17 -690 0 -606 81
-1105 310 -1559 716 -498 446 -815 1037 -913 1698 -18 127 -22 196 -22 408 -1
342 26 536 115 829 299 996 1136 1757 2159 1964 190 39 333 51 580 51 332 -1
548 -34 860 -131 209 -66 188 -68 182 16 -4 60 -2 75 14 92 29 33 116 97 254
189 69 46 127 85 130 88 18 14 -261 129 -455 186 -368 108 -549 134 -1000 141
-256 4 -294 2 -450 -20z"/>
<path d="M6265 8713 c-28 -7 -51 -29 -79 -77 -27 -46 -131 -294 -167 -399 -35
-102 -46 -110 -180 -135 -63 -12 -161 -35 -217 -50 l-102 -29 -47 51 c-77 85
-246 257 -323 329 l-71 68 -67 -37 c-115 -64 -230 -144 -234 -162 -11 -52 44
-267 122 -475 l50 -136 -79 -95 c-43 -51 -106 -134 -140 -184 -33 -50 -65 -93
-71 -97 -6 -3 -52 1 -103 9 -102 17 -304 41 -439 51 l-86 7 -46 -145 c-63
-199 -64 -202 -35 -234 52 -55 348 -249 456 -297 l41 -18 6 -127 c4 -69 11
-178 16 -241 l10 -115 -29 -25 c-16 -14 -100 -70 -187 -125 -86 -55 -186 -128
-222 -162 -65 -61 -65 -61 -58 -105 4 -23 32 -101 64 -171 l56 -128 76 6 c132
11 322 36 425 56 141 27 138 27 183 -33 22 -29 92 -108 157 -176 116 -121 118
-123 108 -155 -49 -149 -105 -336 -122 -402 -37 -151 -38 -142 6 -183 21 -20
95 -66 163 -101 l124 -64 141 144 c77 80 175 188 218 241 l78 95 54 -12 c52
-13 180 -29 339 -43 l80 -7 19 -50 c57 -143 105 -253 164 -378 65 -134 67
-137 99 -137 56 0 325 58 340 73 11 10 23 181 29 386 4 128 9 240 12 248 3 8
27 25 52 38 26 13 116 69 199 124 l152 101 65 -40 c138 -85 465 -236 489 -227
17 7 148 164 185 221 17 28 31 59 31 69 0 38 -106 191 -267 384 -51 62 -93
121 -93 132 0 12 12 51 26 88 14 38 41 124 60 192 19 69 41 135 49 147 17 26
16 26 150 54 136 28 349 84 409 107 l49 18 -2 105 c-2 116 -17 250 -29 261
-18 17 -269 84 -490 129 -51 11 -101 24 -112 30 -10 5 -26 33 -36 62 -18 57
-97 244 -134 319 l-22 46 75 96 c41 53 123 168 182 256 l107 160 -22 28 c-12
15 -67 78 -122 140 l-100 112 -32 -13 c-17 -8 -64 -28 -104 -45 -82 -36 -156
-75 -318 -167 -61 -35 -119 -64 -130 -64 -11 0 -37 12 -59 28 -22 15 -112 63
-200 107 l-160 81 -6 189 c-6 189 -21 332 -40 391 -12 39 -34 49 -145 68 -116
20 -165 24 -189 19z m91 -1188 c200 -42 362 -127 513 -270 205 -196 315 -436
328 -721 15 -319 -92 -593 -316 -807 -167 -159 -359 -260 -552 -288 -124 -18
-395 -7 -489 21 -282 81 -527 290 -660 564 -99 205 -129 445 -84 681 71 374
394 715 766 810 194 49 296 51 494 10z"/>
</g>
</svg>
