<?xml version="1.0" standalone="no"?>
<!DOCTYPE svg PUBLIC "-//W3C//DTD SVG 20010904//EN"
 "http://www.w3.org/TR/2001/REC-SVG-20010904/DTD/svg10.dtd">
<svg version="1.0" xmlns="http://www.w3.org/2000/svg"
 width="512.000000pt" height="512.000000pt" viewBox="0 0 512.000000 512.000000"
 preserveAspectRatio="xMidYMid meet">

<g transform="translate(0.000000,512.000000) scale(0.100000,-0.100000)"
fill="#000000" stroke="none">
<path d="M1453 5105 c-154 -42 -262 -143 -312 -293 -18 -52 -21 -86 -21 -222
0 -136 3 -170 21 -222 l20 -60 -23 -16 c-45 -29 -144 -140 -181 -203 -68 -116
-89 -201 -95 -390 l-4 -166 30 -34 30 -34 474 -3 474 -3 -4 -163 -4 -163 30
-34 30 -34 642 0 642 0 30 34 30 34 -4 163 -4 163 474 3 474 3 30 34 30 34 -4
166 c-6 189 -27 274 -95 390 -38 63 -136 174 -182 204 l-24 16 19 43 c14 35
19 77 22 218 3 159 2 181 -18 240 -87 257 -361 378 -604 267 -77 -36 -123 -72
-173 -140 -67 -92 -83 -158 -83 -348 0 -134 3 -169 20 -220 l21 -61 -28 -20
c-15 -12 -52 -46 -80 -76 l-53 -54 0 95 c0 196 -84 339 -247 421 -192 96 -439
29 -558 -150 -54 -81 -75 -157 -75 -271 l0 -95 -52 54 c-29 30 -66 64 -81 76
l-28 20 21 61 c28 85 29 349 2 439 -70 223 -307 356 -529 297z m179 -197 c51
-15 126 -82 149 -133 15 -33 19 -66 19 -183 0 -158 -7 -185 -60 -246 -50 -56
-103 -80 -180 -80 -79 0 -132 25 -184 86 -48 56 -56 89 -56 246 0 148 9 184
63 241 65 69 162 95 249 69z m2000 0 c51 -15 126 -82 149 -133 15 -32 19 -66
19 -174 0 -153 -10 -195 -58 -251 -50 -59 -103 -84 -182 -84 -77 0 -130 24
-180 80 -53 61 -60 88 -60 244 0 157 9 192 63 249 65 69 162 95 249 69z
m-1000 -400 c51 -15 126 -82 149 -133 15 -32 19 -66 19 -175 0 -158 -8 -192
-56 -248 -52 -61 -105 -86 -184 -86 -79 0 -132 25 -184 86 -48 56 -56 90 -56
248 0 159 12 193 83 256 69 61 144 78 229 52z m-1280 -392 c132 -69 284 -69
416 0 74 39 75 38 144 -33 59 -61 113 -150 128 -212 l11 -48 -58 -81 -58 -82
-437 0 -438 0 0 63 c0 121 42 239 115 326 29 36 101 101 110 101 1 0 31 -15
67 -34z m2000 0 c132 -69 278 -69 414 0 78 39 80 39 158 -43 85 -89 136 -219
136 -350 l0 -63 -438 0 -437 0 -58 82 -58 81 11 48 c16 68 75 162 141 225 32
29 59 54 62 54 2 0 33 -15 69 -34z m-998 -400 c136 -69 276 -69 412 0 78 39
77 39 156 -42 87 -89 138 -218 138 -351 l0 -63 -500 0 -500 0 0 63 c0 143 54
269 155 366 35 34 65 61 67 61 2 0 35 -15 72 -34z"/>
<path d="M160 3429 c-119 -54 -182 -180 -151 -304 21 -84 120 -309 143 -327
33 -25 91 -23 123 5 47 40 44 77 -19 230 -31 75 -56 145 -56 155 0 62 82 85
127 35 14 -16 123 -199 244 -408 156 -271 217 -386 213 -401 -17 -68 76 -324
233 -641 62 -126 105 -201 125 -218 39 -33 87 -33 127 1 51 42 44 77 -48 256
-87 168 -176 371 -217 496 -26 77 -26 82 -10 107 23 34 64 33 98 -2 14 -16
117 -149 228 -298 112 -148 230 -299 264 -333 34 -35 147 -134 251 -220 295
-243 421 -382 496 -549 92 -202 96 -426 13 -691 -42 -132 -3 -122 -495 -122
-231 0 -419 2 -419 4 0 2 32 133 71 291 45 183 68 297 64 314 -4 16 -111 130
-294 311 -158 157 -311 317 -339 355 -67 90 -131 215 -226 440 -47 111 -86
189 -102 203 -36 32 -85 29 -126 -7 -49 -43 -43 -75 51 -294 173 -402 197
-435 551 -788 l277 -277 -64 -263 c-70 -286 -72 -310 -30 -384 12 -21 42 -53
65 -70 l44 -30 471 0 c458 0 473 1 517 21 85 39 149 130 181 255 7 27 16 49
19 49 3 0 12 -22 19 -49 32 -125 96 -216 181 -255 44 -20 59 -21 517 -21 l471
0 44 30 c23 17 53 49 65 70 42 74 40 98 -30 384 l-64 264 276 276 c349 348
386 400 546 776 172 401 527 1310 532 1361 4 35 0 68 -12 104 -65 196 -323
244 -462 85 -21 -23 -125 -195 -232 -381 -107 -187 -198 -344 -203 -351 -7 -9
-17 -8 -43 3 -69 28 -163 15 -237 -34 -42 -27 -423 -523 -440 -573 -22 -63 52
-142 115 -123 36 11 52 29 229 264 204 270 213 280 250 280 36 0 61 -37 52
-76 -16 -73 -136 -357 -221 -524 -107 -211 -113 -241 -62 -284 40 -34 88 -34
127 -1 38 32 196 349 281 563 59 149 89 266 77 298 -7 18 411 756 456 805 46
51 128 31 128 -31 0 -18 -423 -1084 -520 -1310 -83 -193 -149 -320 -212 -405
-28 -38 -181 -198 -339 -355 -183 -181 -290 -295 -294 -311 -4 -17 19 -131 64
-314 39 -158 71 -289 71 -291 0 -2 -188 -4 -419 -4 -492 0 -453 -10 -495 122
-42 135 -57 226 -58 348 -1 222 74 408 236 589 69 76 80 102 66 146 -20 59
-76 88 -129 65 -32 -13 -99 -86 -175 -190 -47 -63 -146 -252 -146 -277 0 -7
-4 -13 -10 -13 -5 0 -10 6 -10 13 0 6 -22 58 -49 113 -99 201 -234 351 -552
611 -101 83 -202 170 -225 194 -23 24 -143 180 -268 345 -226 301 -258 336
-335 362 -46 16 -124 15 -166 -2 -26 -11 -36 -12 -43 -3 -5 7 -96 164 -203
351 -107 186 -211 358 -232 381 -79 90 -212 122 -317 74z"/>
<path d="M328 2545 c-85 -47 -51 -185 45 -185 43 0 92 38 100 77 6 31 -12 81
-36 101 -24 20 -79 24 -109 7z"/>
<path d="M3197 1742 c-52 -54 -24 -151 46 -164 98 -19 161 96 91 166 -38 37
-100 37 -137 -2z"/>
</g>
</svg>
