<svg width="100" height="100" viewBox="0 0 100 100" fill="none" xmlns="http://www.w3.org/2000/svg">
<circle cx="50" cy="50" r="47.5" fill="white" stroke="#000080" stroke-width="5"/>
<g clip-path="url(#clip0_5_42)">
<path d="M49.5 22C34.3365 22 22 34.3365 22 49.5C22 64.6635 34.3365 77 49.5 77C64.6635 77 77 64.6635 77 49.5C77 34.3365 64.6635 22 49.5 22ZM49.5 73.1268C36.472 73.1268 25.8731 62.528 25.8731 49.5C25.8731 36.472 36.472 25.8731 49.5 25.8731C62.528 25.8731 73.1268 36.472 73.1268 49.5C73.1268 62.528 62.528 73.1268 49.5 73.1268Z" fill="#000080"/>
<path d="M49.5 28.7781C38.0739 28.7781 28.7781 38.0739 28.7781 49.5C28.7781 60.9261 38.0739 70.2218 49.5 70.2218C60.9261 70.2218 70.2218 60.9261 70.2218 49.5C70.2218 38.0739 60.9261 28.7781 49.5 28.7781ZM63.2683 60.4872L62.6502 59.8691C61.8941 59.1126 60.6676 59.1128 59.9115 59.8692C59.1552 60.6255 59.1554 61.8518 59.9117 62.608L60.5342 63.2304C57.9859 65.2824 54.8572 66.6405 51.4367 67.0163V66.0581C51.4367 64.9887 50.5696 64.1215 49.5 64.1215C48.4304 64.1215 47.5633 64.9887 47.5633 66.0581V67.0163C44.1278 66.6391 40.9867 65.2705 38.4324 63.2035L39.1309 62.5048C39.8872 61.7485 39.887 60.5222 39.1307 59.7661C38.3746 59.0096 37.1481 59.0098 36.392 59.7663L35.7048 60.4537C33.6889 57.9202 32.3554 54.8211 31.9837 51.4365H32.9418C34.0113 51.4365 34.8785 50.5694 34.8785 49.4998C34.8785 48.4302 34.0115 47.5631 32.9418 47.5631H31.9837C32.3592 44.1426 33.7176 41.0139 35.7696 38.4655L36.392 39.0881C36.7702 39.4665 37.2657 39.6555 37.7615 39.6555C38.257 39.6555 38.7526 39.4665 39.1307 39.0883C39.887 38.3322 39.8872 37.1059 39.1309 36.3496L38.5128 35.7315C41.0526 33.7005 44.1639 32.3567 47.5633 31.9835V32.7965C47.5633 33.8659 48.4304 34.7331 49.5 34.7331C50.5696 34.7331 51.4367 33.8661 51.4367 32.7965V31.9835C54.8213 32.3552 57.9202 33.6887 60.4539 35.7046L59.9117 36.2468C59.1554 37.0031 59.1555 38.2294 59.9118 38.9855C60.29 39.3639 60.7854 39.5528 61.2811 39.5528C61.7768 39.5528 62.2724 39.3637 62.6505 38.9854L63.2035 38.4322C65.2705 40.9867 66.6391 44.1276 67.0163 47.5631H66.2033C65.1339 47.5631 64.2667 48.4302 64.2667 49.4998C64.2667 50.5694 65.1339 51.4367 66.2033 51.4367H67.0163C66.6429 54.8361 65.2991 57.9474 63.2683 60.4872Z" fill="#000080"/>
<path d="M57.4402 47.5633H51.4367V38.0739C51.4367 37.0044 50.5696 36.1372 49.5 36.1372C48.4304 36.1372 47.5633 37.0042 47.5633 38.0739V49.5C47.5633 50.5694 48.4304 51.4366 49.5 51.4366H57.4402C58.5096 51.4366 59.3768 50.5696 59.3768 49.5C59.3768 48.4304 58.5096 47.5633 57.4402 47.5633Z" fill="#000080"/>
</g>
<defs>
<clipPath id="clip0_5_42">
<rect width="55" height="55" fill="white" transform="translate(22 22)"/>
</clipPath>
</defs>
</svg>
