<svg width="100" height="100" viewBox="0 0 100 100" fill="none" xmlns="http://www.w3.org/2000/svg">
<path d="M50.0001 0C29.1871 0 12.2544 16.9327 12.2544 37.7454C12.2544 46.3489 18.3048 59.097 30.2378 75.635C38.9491 87.7081 47.7871 97.5439 47.8752 97.642L49.9998 100L52.1244 97.642C52.2128 97.5442 61.0505 87.7084 69.7618 75.635C81.6948 59.0967 87.7452 46.3489 87.7452 37.7454C87.7455 16.9327 70.8128 0 50.0001 0ZM49.9998 91.4077C39.4015 79.1981 17.9745 51.6412 17.9745 37.7454C17.9742 20.0866 32.341 5.71983 50.0001 5.71983C67.6592 5.71983 82.0257 20.0866 82.0257 37.7454C82.0257 51.6329 60.5981 79.1953 49.9998 91.4077Z" fill="white"/>
<path d="M50 51.9583C57.8494 51.9583 64.2126 45.5951 64.2126 37.7457C64.2126 29.8963 57.8494 23.5331 50 23.5331C42.1506 23.5331 35.7874 29.8963 35.7874 37.7457C35.7874 45.5951 42.1506 51.9583 50 51.9583Z" fill="white"/>
</svg>
