<svg width="807" height="807" viewBox="0 0 807 807" fill="none" xmlns="http://www.w3.org/2000/svg">
<path d="M368.133 1.33338C307.333 7.20005 246.667 26.9334 196.133 57.3334C106 111.6 42.1333 195.467 14 296.533C4.4 331.067 0.266667 362.267 0.133334 400.667C6.3609e-07 433.333 2.13333 456.267 6.13333 465.333C9.33333 472.533 16.8 480.533 24 484.4C29.2 487.2 30.8 487.333 86.9333 487.733L144.4 488.133L157.2 472.8C174.4 452 184.667 445.333 202.533 442.8C227.733 439.2 252.133 452.133 261.333 474C264.667 481.733 265.467 482.667 271.2 484.8C284.267 489.6 295.067 500.133 301.333 513.733C303.867 519.2 305.733 521.467 309.067 522.8C318.4 526.533 329.6 535.467 334.667 543.2C336.133 545.333 339.067 547.2 342.4 548.133C358.8 552.533 372.4 564.133 379.733 579.733C383.6 588 383.867 589.733 384 603.333C384 617.6 383.867 618.267 378.933 628.533C376.267 634.267 374.133 639.2 374.267 639.333C381.067 644.933 396.667 646.133 405.333 641.733C417.2 635.6 424.667 624 424.667 611.733C424.667 606.267 426 605.333 428.8 608.933C432.267 613.067 443.6 617.333 451.333 617.333C469.2 617.2 481.6 605.467 483.067 587.2L483.733 578.933L489.6 583.467C511.6 600.267 542 586 542 558.8C542 552.4 543.067 552.133 548.4 556.667C556.4 563.333 568.8 565.733 579.467 562.533C596.133 557.467 605.6 535.6 598.133 519.2C596.667 516.133 584.533 500.267 571.067 483.867C557.6 467.467 518.133 419.2 483.333 376.667C418.933 297.6 411.867 289.333 409.333 289.333C408 289.333 398.133 294.667 355.333 318.667C315.333 341.067 306.533 344.267 284 344.267C246 344.4 219.867 325.867 217.2 296.667C216.4 287.067 217.733 279.6 222.8 266.4C224.667 261.333 224.933 259.6 223.6 256.8L222 253.333H170.133C140.267 253.333 117.867 252.8 117.467 252.133C116.533 250.8 126.4 233.2 135.467 219.733C154.267 191.733 179.2 165.733 208.133 144C312.4 65.3334 456.933 57.2001 568.933 123.867C577.067 128.667 584 133.333 584.267 134.133C584.533 134.933 581.467 140 577.333 145.2C566.8 158.8 565.2 162.667 567.333 168C568.267 170.267 570.4 173.067 571.867 174C573.867 175.333 587.067 176.4 617.333 178C640.8 179.2 670.133 180.667 682.4 181.333C695.467 182 706.133 182 708 181.333C712 179.733 715.333 174.933 715.333 170.533C715.333 168.533 710.8 154.933 705.067 140.4C699.467 125.867 693.6 110.4 691.867 106C678.267 69.7334 668.267 45.7334 666.4 44.2667C663.067 41.8667 658.533 40.9334 654.667 41.8667C651.733 42.6667 647.733 47.4667 633.2 67.6001C632 69.3334 629.2 68.1334 615.2 59.6001C564.133 28.9334 517.067 12.1334 456 3.20005C439.067 0.800048 386.267 -0.399952 368.133 1.33338Z" fill="black"/>
<path d="M409.6 176.134C397.6 177.467 383.467 181.867 372.4 187.6C367.467 190.134 348.933 203.334 331.067 216.8C313.2 230.267 288.4 249.067 275.867 258.534C263.333 268 251.467 277.6 249.6 280C242.933 287.867 243.733 299.2 251.333 306.533C259.6 314.4 282.533 318 298 314C309.067 311.2 311.6 309.867 354 286C406.267 256.667 410.933 254.4 415.867 255.467C418.133 255.867 421.6 257.6 423.6 259.2C425.6 260.667 445.333 284.133 467.6 311.333C502 353.2 527.467 384.267 613.2 488.267C619.067 495.467 624.8 501.333 625.867 501.333C626.933 501.333 630.8 499.067 634.533 496.267C645.067 488.267 646.933 488 682.8 488C710.133 488 715.333 488.267 715.333 489.867C715.333 494.533 702.267 529.067 694 546C646.933 642.8 553.333 710.133 445.333 724.8C421.6 728 381.467 728 360 724.933C313.6 718.133 271.067 702.933 233.067 679.867C222.667 673.6 207.333 662.533 207.333 661.333C207.333 660.933 211.6 655.333 216.8 648.933C228.133 634.8 229.467 630.4 223.867 624.133L220 620L182 616C161.067 613.867 131.467 610.8 116.267 609.2C85.3334 606 83.4667 606.267 79.6 614.133C77.7334 618.267 78 619.333 85.2 642.133C110 719.867 118.4 744.4 120.667 746.667C123.333 749.333 130.133 750.267 134.533 748.533C135.6 748.133 141.067 742.133 146.667 735.2L156.667 722.8L169.067 731.467C214.267 763.6 266.4 786.667 318 797.467C390.133 812.667 464.133 808.533 531.333 785.733C623.467 754.533 701.067 691.733 750.4 608.667C790.8 540.4 811.2 456.8 806.133 380.133C804.533 354.667 799.6 324 793.867 301.733C787.733 278.267 785.2 272.267 777.467 264.667C766.267 253.467 765.867 253.334 706.133 253.334C668.667 253.2 652 252.8 644.667 251.467C638.267 250.267 612 240.934 571.333 225.334C462.667 183.734 449.6 178.934 440.667 177.467C427.067 175.334 419.333 175.067 409.6 176.134Z" fill="black"/>
<path d="M205.867 470.667C203.2 471.2 199.067 472.667 196.533 474.133C192.133 476.8 167.6 505.333 164 512.133C158.933 521.467 160.533 534 167.6 542.133C176.533 552.267 188.8 556.4 199.2 552.8C202.533 551.733 205.6 551.067 206.267 551.467C206.8 551.867 207.333 554.8 207.333 557.867C207.333 566.133 210.267 572.267 217.467 578.533C226.4 586.4 236.133 588.267 248.4 584.533C251.067 583.733 251.333 584.133 251.333 588.533C251.333 598.533 257.867 608.4 267.867 613.6C273.467 616.533 284.4 617.067 290.4 614.8C294 613.467 294.133 613.6 297.2 620.4C302.533 632.4 312 638.667 324.4 638.667C334.267 638.667 341.6 634.267 348.267 624.4C354.8 614.533 357.067 605.733 355.2 597.333C351.867 582.533 342 575.467 325.6 576.267L316 576.667L315.2 571.333C313.067 555.6 300.933 546.8 283.867 548.533C279.2 549.067 275.333 548.933 275.333 548.4C275.333 547.867 276 544.933 276.667 542C279.467 529.867 271.867 515.733 260 511.2C254.133 509.067 247.467 509.067 237.467 511.467C234 512.267 233.733 512.133 234.667 509.867C240.267 496.133 236.933 482.4 226 474.667C221.333 471.333 212.4 469.6 205.867 470.667Z" fill="black"/>
</svg>
