<svg width="248" height="311" viewBox="0 0 248 311" fill="none" xmlns="http://www.w3.org/2000/svg">
<path d="M61.3271 10.8032L0 21.4304V24.2409C0 26.2609 0.48062 27.1392 1.53798 27.1392C2.30698 27.1392 26.2419 23.1869 54.5984 18.4442C82.955 13.6137 110.158 9.04659 114.964 8.25613L123.616 6.85088L183.693 17.039C216.664 22.66 244.636 27.4905 245.885 27.754C247.808 28.1932 248 27.8418 248 25.0313C248 22.4843 247.616 21.7817 245.885 21.4304C241.752 20.6399 123.135 -0.0875532 122.847 0.0002751C122.654 0.0881034 94.9705 4.91866 61.3271 10.8032Z" fill="white"/>
<path d="M72.0933 22.3085C44.8902 26.8755 17.591 31.4426 11.439 32.4087L0.384766 34.2531L0.673138 66.9252C1.34601 133.499 3.46073 151.065 14.9956 183.649C33.5476 236.17 64.7879 274.639 112.562 303.886L124.193 311L131.017 306.784C162.546 287.813 187.923 264.627 206.186 238.278C213.972 227.036 225.892 204.816 230.506 192.783C238.196 173.11 243.867 149.835 246.078 128.581C247.135 119.271 248.289 34.1653 247.424 34.1653C247.231 34.1653 219.451 29.5982 185.712 24.065C151.972 18.5319 123.712 13.9648 122.943 14.0526C122.174 14.0526 99.2964 17.8292 72.0933 22.3085ZM149.569 33.3748C178.31 35.9219 216.952 45.4073 238.388 55.0684L243.675 57.4398L243.386 78.5186C242.713 125.243 241.079 141.755 234.831 165.469C219.74 223.26 184.943 269.106 132.844 299.934L123.712 305.291L113.523 299.143C55.9445 264.275 19.0328 208.944 8.65143 141.579C6.72895 129.371 4.9026 93.3615 4.80647 65.7835V56.5615L13.746 53.1362C40.084 42.9481 73.8235 35.1314 100.45 33.0235C109.678 32.2331 139.957 32.4966 149.569 33.3748Z" fill="white"/>
<line x1="51" y1="98.4912" x2="188.936" y2="98.4912" stroke="white" stroke-width="2"/>
<path d="M75.2696 92H70.3264L77.8584 70.1818H83.803L91.3243 92H86.3811L80.9159 75.1676H80.7454L75.2696 92ZM74.9606 83.424H86.6368V87.0249H74.9606V83.424ZM95.1675 70.1818L100.441 86.7585H100.643L105.927 70.1818H111.041L103.52 92H97.5752L90.0432 70.1818H95.1675ZM114.527 92H109.584L117.116 70.1818H123.061L130.582 92H125.639L120.174 75.1676H120.003L114.527 92ZM114.218 83.424H125.895V87.0249H114.218V83.424ZM151.457 70.1818V92H147.473L137.981 78.2678H137.821V92H133.208V70.1818H137.256L146.674 83.9034H146.866V70.1818H151.457ZM154.438 73.9851V70.1818H172.357V73.9851H165.677V92H161.117V73.9851H154.438ZM69.7258 109.985V106.182H87.6448V109.985H80.9652V128H76.4055V109.985H69.7258ZM90.5958 128V106.182H105.298V109.985H95.2088V115.184H104.541V118.987H95.2088V124.197H105.34V128H90.5958ZM113.29 106.182L117.69 113.618H117.861L122.282 106.182H127.491L120.833 117.091L127.64 128H122.335L117.861 120.553H117.69L113.216 128H107.932L114.76 117.091L108.059 106.182H113.29ZM130.41 128V106.182H135.023V115.184H144.388V106.182H148.99V128H144.388V118.987H135.023V128H130.41ZM172.843 117.091C172.843 119.47 172.392 121.494 171.49 123.163C170.595 124.832 169.373 126.107 167.825 126.988C166.284 127.862 164.551 128.298 162.626 128.298C160.687 128.298 158.947 127.858 157.406 126.977C155.865 126.097 154.647 124.822 153.752 123.153C152.857 121.484 152.41 119.463 152.41 117.091C152.41 114.712 152.857 112.688 153.752 111.018C154.647 109.349 155.865 108.078 157.406 107.205C158.947 106.324 160.687 105.884 162.626 105.884C164.551 105.884 166.284 106.324 167.825 107.205C169.373 108.078 170.595 109.349 171.49 111.018C172.392 112.688 172.843 114.712 172.843 117.091ZM168.166 117.091C168.166 115.55 167.935 114.25 167.474 113.192C167.019 112.134 166.376 111.331 165.545 110.784C164.714 110.237 163.741 109.964 162.626 109.964C161.511 109.964 160.538 110.237 159.707 110.784C158.876 111.331 158.23 112.134 157.768 113.192C157.314 114.25 157.086 115.55 157.086 117.091C157.086 118.632 157.314 119.932 157.768 120.99C158.23 122.048 158.876 122.851 159.707 123.398C160.538 123.945 161.511 124.218 162.626 124.218C163.741 124.218 164.714 123.945 165.545 123.398C166.376 122.851 167.019 122.048 167.474 120.99C167.935 119.932 168.166 118.632 168.166 117.091Z" fill="white"/>
<path d="M144.86 163.233C144.398 163.393 143.909 163.576 143.8 163.668C143.691 163.783 142.712 163.852 141.625 163.852C139.069 163.852 138.797 163.943 138.797 164.883C138.797 165.433 138.933 165.662 139.341 165.754C139.939 165.892 139.939 165.754 139.994 169.811C140.021 172.631 140.021 172.654 140.7 172.791C141.761 172.998 142.06 173.8 141.924 176.001C141.87 177.078 141.734 182.648 141.652 188.379C141.489 197.112 141.407 198.9 141.054 199.382C140.646 199.978 139.123 200.986 138.634 200.986C138.498 200.986 137.982 199.725 137.492 198.167C137.03 196.631 135.997 193.353 135.235 190.9C133.55 185.399 131.837 181.066 130.097 177.766C129.363 176.367 128.792 175.175 128.873 175.129C128.928 175.084 129.716 175.244 130.613 175.473L132.272 175.932V172.906C132.272 169.284 132.163 169.101 130.151 169.559C128.846 169.857 127.514 170.705 127.215 171.462C127.133 171.691 126.97 171.874 126.834 171.874C126.725 171.874 126.046 171.141 125.366 170.224C124.278 168.803 124.115 168.413 124.115 167.359C124.115 165.892 123.381 165.112 121.913 164.906C120.037 164.677 94.4249 164.562 93.9083 164.791C93.2829 165.066 93.2558 165.8 93.8267 166.969C94.3433 168.001 94.2889 168.597 93.1198 178.064C92.6848 181.525 92.1954 185.49 92.0051 186.889C91.8419 188.264 91.706 190.304 91.7332 191.405V193.399L90.5912 193.513C89.5309 193.628 85.2894 193.903 79.2535 194.247C75.4198 194.476 75.0664 194.637 74.3594 196.631C74.0332 197.548 73.8429 198.419 73.9244 198.602C74.006 198.763 74.6585 198.969 75.447 199.061C77.0512 199.244 77.1055 199.427 76.1811 201.559C75.6917 202.682 75.4198 203.003 74.6585 203.301C73.2447 203.851 73 204.31 73 206.281C73 207.955 73.0544 208.092 73.7341 208.505L74.4682 208.963L73.8157 210.178C73.1903 211.324 73.1359 211.599 73.1903 214.74C73.2991 219.508 73.2447 219.37 75.1479 220.104C76.018 220.425 77.1055 220.7 77.5677 220.7C78.329 220.7 78.4106 220.631 78.5737 219.714C79.3078 215.634 81.9452 212.723 85.8332 211.622C87.9539 211.026 91.4885 211.255 93.5548 212.104C96.7087 213.41 99.1558 216.276 99.5364 219.141L99.7267 220.47H110.929H122.13L122.321 217.628C122.429 216.069 122.701 214.304 122.892 213.708C123.952 210.751 126.834 207.886 130.097 206.488C135.072 204.356 141.271 205.089 145.594 208.276C148.259 210.224 149.945 213.066 150.38 216.321C150.461 217.078 150.733 217.834 150.923 217.972C151.168 218.132 151.304 218.728 151.304 219.645C151.331 221.639 151.712 222.786 152.582 223.427L153.316 223.978L163.947 223.817C169.765 223.725 175.829 223.611 177.405 223.565C178.982 223.519 183.55 223.404 187.574 223.313C192.169 223.221 195.16 223.084 195.595 222.923C196.139 222.717 192.251 222.625 178.575 222.579C167.047 222.556 160.82 222.442 160.82 222.304C160.82 222.167 162.642 222.075 165.578 222.052C168.188 222.029 170.418 222.006 170.554 221.983C170.663 221.96 174.224 221.846 178.439 221.754C182.68 221.662 186.351 221.548 186.595 221.502C186.867 221.456 188.499 221.41 190.266 221.41C192.196 221.387 193.447 221.296 193.447 221.158C193.447 220.998 186.84 220.929 174.143 220.929H154.839V203.278V185.628H153.86C152.473 185.628 151.902 185.972 151.576 187.003C151.413 187.554 151.304 190.923 151.304 195.874C151.331 203.164 151.168 205.043 150.652 203.462C150.57 203.164 150.488 193.949 150.488 182.969V163.003H148.123C146.791 162.98 145.35 163.095 144.86 163.233ZM141.788 168.344C141.788 170.041 141.679 170.935 141.516 170.843C141.027 170.591 141.19 165.685 141.679 165.685C141.734 165.685 141.788 166.877 141.788 168.344ZM112.56 168.299C120.825 168.482 121.097 168.597 124.36 173.823L126.617 177.399L126.182 178.384C125.556 179.737 125.638 180.516 126.589 182.786C128.112 186.43 128.601 187.164 129.716 187.622C131.103 188.195 131.728 188.998 131.918 190.465C132.054 191.68 132.027 191.748 131.184 192.344C130.722 192.688 130.206 192.963 130.07 192.963C129.77 192.963 129.009 192.321 126.073 189.456C124.632 188.058 123.816 187.462 123.408 187.462C122.565 187.462 122.294 187.003 122.919 186.614C124.632 185.559 125.203 184.711 124.197 184.711C123.707 184.711 119.493 187.21 118.079 188.333C116.584 189.479 117.535 190.006 119.221 188.952C119.738 188.631 120.227 188.379 120.336 188.379C120.472 188.379 120.553 188.768 120.526 189.227C120.499 189.892 121.26 191.405 123.68 195.599C125.91 199.427 126.807 201.238 126.698 201.605C126.617 201.926 125.882 202.43 124.55 203.026C123.463 203.553 122.484 203.966 122.402 203.966C122.321 203.966 121.152 202.247 119.819 200.115C117.155 195.966 117.019 195.508 118.297 194.453C119.004 193.857 119.112 193.399 118.677 192.734C118.188 191.955 116.747 191.771 111.663 191.84L106.85 191.932L106.551 191.015C106.361 190.511 106.035 189.066 105.763 187.806C105.219 185.009 104.675 183.542 103.968 182.786C103.343 182.098 102.826 182.052 101.712 182.533C101.304 182.717 100.869 182.877 100.814 182.877C100.678 182.877 100.814 179.531 101.304 172.448C101.494 169.33 101.63 168.505 101.983 168.276C102.255 168.092 103.234 168.046 104.757 168.115C106.062 168.161 109.569 168.253 112.56 168.299ZM144.779 181.387C144.779 186.82 144.67 189.754 144.507 189.754C144.344 189.754 144.235 186.82 144.235 181.387C144.235 175.955 144.344 173.021 144.507 173.021C144.67 173.021 144.779 175.955 144.779 181.387ZM128.194 180.516C130.749 186.224 130.994 187.118 129.58 186.155C128.9 185.697 126.834 180.952 126.834 179.874C126.834 178.751 127.568 179.095 128.194 180.516ZM144.779 196.768C144.779 198.465 144.67 199.359 144.507 199.267C144.344 199.175 144.235 198.052 144.235 196.608C144.235 195.095 144.344 194.109 144.507 194.109C144.67 194.109 144.779 195.141 144.779 196.768Z" fill="white"/>
<path d="M132.489 207.152C123.871 209.49 121.016 218.522 127.079 224.206C129.553 226.544 133.033 227.691 137.084 227.53C139.178 227.461 139.803 227.324 141.625 226.59C147.987 224.046 150.57 217.811 147.471 212.447C145.921 209.834 142.658 207.61 139.314 206.969C137.438 206.602 134.23 206.693 132.489 207.152ZM138.226 211.668C140.972 212.355 143.148 214.762 143.148 217.146C143.148 219.576 140.972 221.96 138.145 222.648C136.242 223.106 134.692 222.946 132.897 222.075C128.465 219.943 128.411 214.51 132.789 212.287C134.828 211.255 136.051 211.118 138.226 211.668Z" fill="white"/>
<path d="M134.637 212.676C134.202 212.791 133.441 213.135 132.925 213.478C130.233 215.198 130.206 219.072 132.87 220.768C136.541 223.106 141.788 220.997 141.788 217.192C141.788 214.029 138.226 211.782 134.637 212.676Z" fill="white"/>
<path d="M86.5947 212.882C84.039 213.57 81.9998 215.083 80.9123 217.031C79.9063 218.842 79.9063 221.432 80.9394 223.266C81.7823 224.779 83.4136 226.2 85.1809 226.934C86.2413 227.369 86.8938 227.461 89.0418 227.461C92.0325 227.461 93.5551 226.98 95.3768 225.444C97.0625 224.023 97.851 222.326 97.851 220.126C97.851 218.636 97.7422 218.063 97.1441 217.008C95.6758 214.303 93.0657 212.882 89.4496 212.768C88.2533 212.722 86.9754 212.768 86.5947 212.882ZM90.4828 216.435C94.5339 217.673 94.697 222.258 90.7547 223.725C87.4104 224.962 83.8215 222.395 84.5284 219.255C84.7731 218.2 86.2141 216.848 87.5464 216.458C88.9058 216.068 89.1777 216.045 90.4828 216.435Z" fill="white"/>
<path d="M87.411 217.559C86.5138 217.948 85.5078 219.255 85.5078 220.057C85.5078 221.708 87.0848 222.991 89.0696 222.991C92.3322 222.991 93.7189 219.645 91.1903 217.834C90.2659 217.192 88.5802 217.054 87.411 217.559Z" fill="white"/>
</svg>
